<?xml version="1.0" encoding="UTF-8"?>
<!-- Generator: visioncortex VTracer 0.6.12 -->
<svg version="1.1" xmlns="http://www.w3.org/2000/svg" width="512" height="511">
<path d="M0 0 C2 3 2 3 2.125 5.9375 C3.10196022 9.35686077 3.51668064 9.79478969 6.4375 11.5625 C9.16724869 12.78165822 10.45414555 13.14682224 13.3671875 12.36328125 C13.77066406 12.20021484 13.77066406 12.20021484 15.8125 11.375 C18.94230222 10.23949249 20.40870062 9.81873858 23.625 10.8046875 C26.55287437 12.3792711 29.25932051 14.11784661 32 16 C33.05574219 16.69222656 34.11148437 17.38445313 35.19921875 18.09765625 C42.48237319 22.98469597 49.28956992 28.35436543 56 34 C56.58394531 34.46019531 57.16789062 34.92039063 57.76953125 35.39453125 C61.29411023 38.17513577 64.13579537 41.31244246 67.02734375 44.71875 C69.22109537 47.25568257 71.51583542 49.6809751 73.8125 52.125 C121.42825588 104.56716382 134.09308602 182.67659865 130.81103516 250.9296875 C130.20826016 260.32732239 129.20239692 269.66246719 128 279 C142.64262886 251.1166961 150.15327968 220.28936528 151.28491211 188.84545898 C151.65036864 179.33071408 152.54258867 171.47911301 159.1875 164.125 C166.0618098 157.93666166 173.86790434 155.90735555 183 156 C190.93171192 156.6111319 197.41962293 160.15951006 202.828125 165.9609375 C208.04665941 172.57276993 209.30858225 178.59821755 209.30078125 186.859375 C209.30360359 187.2860421 209.30360359 187.2860421 209.31788635 189.44523621 C209.32990812 192.21367601 209.32364852 194.98156118 209.3125 197.75 C209.31034485 198.69650421 209.3081897 199.64300842 209.30596924 200.61819458 C209.1132347 253.25978921 195.99798239 306.3384437 161 347 C160.27554687 347.845625 159.55109375 348.69125 158.8046875 349.5625 C153.34037396 355.82981302 153.34037396 355.82981302 151 357 C149.41539781 356.91734989 147.83203996 356.80974854 146.25 356.6875 C141.57752674 356.59972232 141.57752674 356.59972232 139.078125 358.33203125 C137.65811194 359.83288664 136.32272136 361.41273437 135 363 C134.34 363 133.68 363 133 363 C133.13019531 363.59167969 133.26039063 364.18335938 133.39453125 364.79296875 C133.46349609 365.18806641 133.46349609 365.18806641 133.8125 367.1875 C133.96332031 367.96480469 134.11414063 368.74210937 134.26953125 369.54296875 C133.85672919 373.30604835 131.81256924 374.58594193 129 377 C108.9876068 392.61024593 85.03329783 403.32688325 61 411 C60.17016602 411.26554687 59.34033203 411.53109375 58.48535156 411.8046875 C32.45373835 419.99213144 5.75076487 423.89453452 -21.4375 425.125 C-23.24807479 425.21165833 -25.05862202 425.29889448 -26.86914062 425.38671875 C-31.24580564 425.59778717 -35.62276547 425.80110747 -40 426 C-30.36657651 428.27960415 -20.89105732 430.03091965 -11.0078125 430.7578125 C-10.2187854 430.81650009 -9.4297583 430.87518768 -8.61682129 430.93565369 C-4.63552742 431.22375772 -0.65465541 431.47829592 3.33105469 431.6965332 C12.96490422 432.29289079 20.9115283 433.54034756 28.40234375 440.10546875 C34.08810891 447.81669733 37.44551975 456.29895633 36 466 C34.29920212 472.54715744 32.13078374 478.41504432 27 483 C15.86594586 489.35724304 5.31629856 490.36674134 -7.3125 490.3125 C-7.98685089 490.31067719 -8.66120178 490.30885437 -9.35598755 490.30697632 C-55.99891108 490.09686381 -104.99173441 479.22407133 -143 451 C-143.54527344 450.61118652 -144.09054688 450.22237305 -144.65234375 449.82177734 C-166.98846442 433.87772886 -184.66916968 412.81967694 -198 389 C-198.3722168 388.34451172 -198.74443359 387.68902344 -199.12792969 387.01367188 C-214.07913219 360.52722789 -222.62453783 331.5693478 -228.1875 301.8125 C-228.34234863 300.99555664 -228.49719727 300.17861328 -228.65673828 299.33691406 C-231.51219445 283.3973165 -232.34957897 267.53303363 -232.625 251.375 C-232.66331953 249.48175565 -232.70237846 247.58852612 -232.7421875 245.6953125 C-232.83660791 241.13033331 -232.92116683 236.56527386 -233 232 C-239.51053967 252.60195991 -244.28155589 273.18877015 -245.234375 294.84375 C-245.25230103 295.24392334 -245.25230103 295.24392334 -245.34301758 297.26904297 C-245.40374054 298.78319443 -245.45154168 300.29794948 -245.4831543 301.81298828 C-245.76970243 309.79367838 -248.45861146 317.14440901 -254 323 C-261.44203328 328.81216649 -268.65522157 330.69542537 -278 330 C-286.75989012 328.74184702 -292.6554195 324.82738678 -298.421875 318.29296875 C-302.62588428 312.18466814 -303.45044125 307.02902691 -303.3984375 299.7890625 C-303.40262192 298.91198639 -303.40680634 298.03491028 -303.41111755 297.1312561 C-303.41738844 294.29547028 -303.39856004 291.4606852 -303.375 288.625 C-303.37283981 288.14101746 -303.37283981 288.14101746 -303.36190796 285.69177246 C-303.08158995 232.30639686 -289.40655947 176.23454275 -252.078125 136.23046875 C-250.16973109 134.18217378 -248.36375274 132.07964403 -246.5625 129.9375 C-234.85158049 116.6030212 -219.39876204 105.66972482 -204 97 C-203.278125 96.58927246 -202.55625 96.17854492 -201.8125 95.75537109 C-176.12209355 81.28867223 -148.67756558 72.23836245 -119.8125 66.75 C-119.16563232 66.6267334 -119.16563232 66.6267334 -115.89208984 66.00292969 C-99.08556047 62.9387207 -82.58101951 61.62508791 -65.5 61.6875 C-65.04555511 61.68758057 -65.04555511 61.68758057 -62.74578857 61.68798828 C-48.3925061 61.70561396 -34.3768761 62.49608462 -20.17431641 64.72460938 C-18 65 -18 65 -14 65 C-33.29927003 54.26283904 -54.3488321 47.89571187 -76 44 C-77.18722656 43.77828125 -78.37445313 43.5565625 -79.59765625 43.328125 C-85.2417987 42.40491954 -90.83006328 41.9330274 -96.53515625 41.58203125 C-97.72850586 41.50557373 -98.92185547 41.42911621 -100.15136719 41.3503418 C-102.5403557 41.20330016 -104.93041512 41.07249564 -107.32128906 40.96020508 C-116.3509371 40.42043163 -124.40763579 38.59236421 -131 32 C-137.04051563 23.95184944 -138.87826693 15.97656335 -138 6 C-136.630177 -1.35209689 -134.14559458 -8.09808379 -127.8515625 -12.50390625 C-98.83899857 -29.4198696 -28.7528839 -15.15694931 0 0 Z " fill="#D5AAF2" transform="translate(303,19)"/>
<path d="M0 0 C2 3 2 3 2.125 5.9375 C3.10196022 9.35686077 3.51668064 9.79478969 6.4375 11.5625 C9.16724869 12.78165822 10.45414555 13.14682224 13.3671875 12.36328125 C13.77066406 12.20021484 13.77066406 12.20021484 15.8125 11.375 C18.94230222 10.23949249 20.40870062 9.81873858 23.625 10.8046875 C26.55287437 12.3792711 29.25932051 14.11784661 32 16 C33.05574219 16.69222656 34.11148437 17.38445313 35.19921875 18.09765625 C42.48237319 22.98469597 49.28956992 28.35436543 56 34 C56.58394531 34.46019531 57.16789062 34.92039063 57.76953125 35.39453125 C61.29411023 38.17513577 64.13579537 41.31244246 67.02734375 44.71875 C69.22109537 47.25568257 71.51583542 49.6809751 73.8125 52.125 C121.42825588 104.56716382 134.09308602 182.67659865 130.81103516 250.9296875 C130.20826016 260.32732239 129.20239692 269.66246719 128 279 C142.64262886 251.1166961 150.15327968 220.28936528 151.28491211 188.84545898 C151.65036864 179.33071408 152.54258867 171.47911301 159.1875 164.125 C166.0618098 157.93666166 173.86790434 155.90735555 183 156 C190.93171192 156.6111319 197.41962293 160.15951006 202.828125 165.9609375 C208.04665941 172.57276993 209.30858225 178.59821755 209.30078125 186.859375 C209.30360359 187.2860421 209.30360359 187.2860421 209.31788635 189.44523621 C209.32990812 192.21367601 209.32364852 194.98156118 209.3125 197.75 C209.31034485 198.69650421 209.3081897 199.64300842 209.30596924 200.61819458 C209.1132347 253.25978921 195.99798239 306.3384437 161 347 C160.27554687 347.845625 159.55109375 348.69125 158.8046875 349.5625 C153.34037396 355.82981302 153.34037396 355.82981302 151 357 C149.41539781 356.91734989 147.83203996 356.80974854 146.25 356.6875 C141.57752674 356.59972232 141.57752674 356.59972232 139.078125 358.33203125 C137.65811194 359.83288664 136.32272136 361.41273437 135 363 C134.34 363 133.68 363 133 363 C133.13019531 363.59167969 133.26039063 364.18335938 133.39453125 364.79296875 C133.46349609 365.18806641 133.46349609 365.18806641 133.8125 367.1875 C133.96332031 367.96480469 134.11414063 368.74210937 134.26953125 369.54296875 C133.85672919 373.30604835 131.81256924 374.58594193 129 377 C108.9876068 392.61024593 85.03329783 403.32688325 61 411 C60.17016602 411.26554687 59.34033203 411.53109375 58.48535156 411.8046875 C32.45373835 419.99213144 5.75076487 423.89453452 -21.4375 425.125 C-23.24807479 425.21165833 -25.05862202 425.29889448 -26.86914062 425.38671875 C-31.24580564 425.59778717 -35.62276547 425.80110747 -40 426 C-30.36657651 428.27960415 -20.89105732 430.03091965 -11.0078125 430.7578125 C-10.2187854 430.81650009 -9.4297583 430.87518768 -8.61682129 430.93565369 C-4.63552742 431.22375772 -0.65465541 431.47829592 3.33105469 431.6965332 C12.96490422 432.29289079 20.9115283 433.54034756 28.40234375 440.10546875 C34.08810891 447.81669733 37.44551975 456.29895633 36 466 C34.29920212 472.54715744 32.13078374 478.41504432 27 483 C15.86594586 489.35724304 5.31629856 490.36674134 -7.3125 490.3125 C-7.98685089 490.31067719 -8.66120178 490.30885437 -9.35598755 490.30697632 C-55.99891108 490.09686381 -104.99173441 479.22407133 -143 451 C-143.54527344 450.61118652 -144.09054688 450.22237305 -144.65234375 449.82177734 C-166.98846442 433.87772886 -184.66916968 412.81967694 -198 389 C-198.3722168 388.34451172 -198.74443359 387.68902344 -199.12792969 387.01367188 C-214.07913219 360.52722789 -222.62453783 331.5693478 -228.1875 301.8125 C-228.34234863 300.99555664 -228.49719727 300.17861328 -228.65673828 299.33691406 C-231.51219445 283.3973165 -232.34957897 267.53303363 -232.625 251.375 C-232.66331953 249.48175565 -232.70237846 247.58852612 -232.7421875 245.6953125 C-232.83660791 241.13033331 -232.92116683 236.56527386 -233 232 C-239.51053967 252.60195991 -244.28155589 273.18877015 -245.234375 294.84375 C-245.25230103 295.24392334 -245.25230103 295.24392334 -245.34301758 297.26904297 C-245.40374054 298.78319443 -245.45154168 300.29794948 -245.4831543 301.81298828 C-245.76970243 309.79367838 -248.45861146 317.14440901 -254 323 C-261.44203328 328.81216649 -268.65522157 330.69542537 -278 330 C-286.75989012 328.74184702 -292.6554195 324.82738678 -298.421875 318.29296875 C-302.62588428 312.18466814 -303.45044125 307.02902691 -303.3984375 299.7890625 C-303.40262192 298.91198639 -303.40680634 298.03491028 -303.41111755 297.1312561 C-303.41738844 294.29547028 -303.39856004 291.4606852 -303.375 288.625 C-303.37283981 288.14101746 -303.37283981 288.14101746 -303.36190796 285.69177246 C-303.08158995 232.30639686 -289.40655947 176.23454275 -252.078125 136.23046875 C-250.16973109 134.18217378 -248.36375274 132.07964403 -246.5625 129.9375 C-234.85158049 116.6030212 -219.39876204 105.66972482 -204 97 C-203.278125 96.58927246 -202.55625 96.17854492 -201.8125 95.75537109 C-176.12209355 81.28867223 -148.67756558 72.23836245 -119.8125 66.75 C-119.16563232 66.6267334 -119.16563232 66.6267334 -115.89208984 66.00292969 C-99.08556047 62.9387207 -82.58101951 61.62508791 -65.5 61.6875 C-65.04555511 61.68758057 -65.04555511 61.68758057 -62.74578857 61.68798828 C-48.3925061 61.70561396 -34.3768761 62.49608462 -20.17431641 64.72460938 C-18 65 -18 65 -14 65 C-33.29927003 54.26283904 -54.3488321 47.89571187 -76 44 C-77.18722656 43.77828125 -78.37445313 43.5565625 -79.59765625 43.328125 C-85.2417987 42.40491954 -90.83006328 41.9330274 -96.53515625 41.58203125 C-97.72850586 41.50557373 -98.92185547 41.42911621 -100.15136719 41.3503418 C-102.5403557 41.20330016 -104.93041512 41.07249564 -107.32128906 40.96020508 C-116.3509371 40.42043163 -124.40763579 38.59236421 -131 32 C-137.04051563 23.95184944 -138.87826693 15.97656335 -138 6 C-136.630177 -1.35209689 -134.14559458 -8.09808379 -127.8515625 -12.50390625 C-98.83899857 -29.4198696 -28.7528839 -15.15694931 0 0 Z M-176.75 133.875 C-189.04557051 147.99985501 -198.68417971 164.84187493 -206 182 C-206.35707031 182.83144531 -206.71414062 183.66289062 -207.08203125 184.51953125 C-219.48483509 215.89714256 -220.6841997 252.69745481 -212 285 C-211.89856689 285.38381836 -211.89856689 285.38381836 -211.38525391 287.32617188 C-208.59339949 297.63527508 -204.5838746 307.37677066 -200 317 C-199.71318359 317.61166016 -199.42636719 318.22332031 -199.13085938 318.85351562 C-195.19899717 327.11663914 -190.39690663 334.55146623 -185 341.9375 C-184.43079834 342.71843018 -183.86159668 343.49936035 -183.27514648 344.30395508 C-179.25821143 349.66540381 -174.83148523 354.3682296 -170 359 C-165 364 -165 364 -163.52734375 365.54516602 C-159.20421594 370.01584739 -154.62143904 373.76841438 -149.5625 377.375 C-148.77609131 377.93662842 -147.98968262 378.49825684 -147.17944336 379.0769043 C-119.70520757 398.39528715 -87.87647762 409.40878865 -54.19995117 409.31567383 C-51.8326954 409.31252685 -49.46671077 409.33602336 -47.09960938 409.36132812 C-8.15797461 409.52131177 31.52124321 393.26827443 60.19921875 366.984375 C61.83485181 365.35228995 63.42637905 363.69164252 65 362 C70 357 70 357 71.56665039 355.50805664 C75.91094829 351.3106465 79.50678992 346.90105616 82.9375 341.9375 C83.45401123 341.19580566 83.97052246 340.45411133 84.50268555 339.68994141 C92.24229214 328.43430422 98.6139388 316.54139077 104 304 C104.22623047 303.47535156 104.22623047 303.47535156 105.37109375 300.8203125 C111.45623685 285.31362385 114.72907131 267.64276229 115 251 C115.01901367 250.33548828 115.03802734 249.67097656 115.05761719 248.98632812 C116.3601531 201.79609261 99.3065674 160.32041968 67 126.1015625 C49.81839024 108.18951628 28.93247073 95.99874913 6 87 C4.99195313 86.58878906 3.98390625 86.17757812 2.9453125 85.75390625 C-60.95541634 60.79571885 -131.59576212 86.07406612 -176.75 133.875 Z " fill="#010102" transform="translate(303,19)"/>
<path d="M0 0 C1.21558594 -0.01224609 2.43117188 -0.02449219 3.68359375 -0.03710938 C10.76670884 -0.04857073 17.26340583 0.42327471 24.125 2.1875 C24.9180957 2.38480713 25.71119141 2.58211426 26.52832031 2.78540039 C56.30216256 10.51711114 81.2692802 28.63790651 97.06103516 55.31835938 C107.43084006 73.53571282 111.30127329 91.20327038 111.3125 112.0625 C111.32474609 113.25230469 111.33699219 114.44210937 111.34960938 115.66796875 C111.36719561 126.39557086 110.17028288 136.4733282 106.4375 146.5625 C106.17549805 147.28091064 105.91349609 147.99932129 105.64355469 148.73950195 C97.89204365 169.4475676 85.66604499 186.70190552 68.125 200.1875 C67.73441406 200.49171875 67.73441406 200.49171875 65.7578125 202.03125 C53.80744403 210.88337479 40.39122716 216.35218028 26.125 220.1875 C25.04476562 220.5071875 23.96453125 220.826875 22.8515625 221.15625 C-4.1532073 228.21803 -32.03129641 221.33815276 -55.875 208.1875 C-70.74632044 199.44485913 -70.74632044 199.44485913 -72.875 195.1875 C-72.7403274 193.83217789 -72.5926212 192.47813419 -72.4375 191.125 C-72.38418522 185.64246308 -74.79414627 182.7489276 -78.515625 178.921875 C-81.62169475 176.63860518 -83.90874791 176.32866074 -87.69921875 176.578125 C-91.23521865 175.94329558 -92.60761459 173.88693838 -94.875 171.1875 C-96.38940849 168.76750092 -97.64747425 166.26307896 -98.875 163.6875 C-99.04660645 163.33179932 -99.04660645 163.33179932 -99.91503906 161.53173828 C-100.91846025 159.424365 -101.8997771 157.30804281 -102.875 155.1875 C-103.36484375 154.14335937 -103.8546875 153.09921875 -104.359375 152.0234375 C-115.03923229 127.03784544 -114.61313179 97.33738748 -104.875 72.1875 C-93.19754207 43.31567488 -71.5202684 20.14905582 -42.78515625 7.72265625 C-28.60539042 1.95430866 -15.25614601 0.00803801 0 0 Z " fill="#C394E8" transform="translate(251.875,150.8125)"/>
<path d="M0 0 C11.67970036 10.05043123 20.46446735 24.91144196 22.5625 40.25 C23.95661186 59.93320305 20.519113 77.85320819 7.44140625 93.2421875 C6.82136719 93.90476562 6.20132813 94.56734375 5.5625 95.25 C4.87027344 95.99507813 4.17804688 96.74015625 3.46484375 97.5078125 C-10.36458936 111.1294578 -27.49830925 115.55203785 -46.33129883 115.56469727 C-54.0537198 115.46596898 -60.44688443 114.71949311 -67.4375 111.25 C-68.48550781 110.775625 -69.53351563 110.30125 -70.61328125 109.8125 C-87.5823341 101.51740483 -98.6853916 87.76785399 -105.4375 70.25 C-110.15140054 54.85340336 -108.81054683 36.49939171 -101.89453125 22.01953125 C-100.21007387 18.97825694 -98.40358062 16.11635983 -96.4375 13.25 C-95.84066406 12.37601563 -95.24382812 11.50203125 -94.62890625 10.6015625 C-85.17241382 -2.17748132 -70.61170898 -11.14448727 -55.05859375 -14.28125 C-34.7275129 -16.91310513 -16.50443722 -12.29490736 0 0 Z " fill="#A773D0" transform="translate(294.4375,211.75)"/>
<path d="M0 0 C1.21558594 -0.01224609 2.43117188 -0.02449219 3.68359375 -0.03710938 C10.76670884 -0.04857073 17.26340583 0.42327471 24.125 2.1875 C24.9180957 2.38480713 25.71119141 2.58211426 26.52832031 2.78540039 C56.30216256 10.51711114 81.2692802 28.63790651 97.06103516 55.31835938 C107.43084006 73.53571282 111.30127329 91.20327038 111.3125 112.0625 C111.32474609 113.25230469 111.33699219 114.44210937 111.34960938 115.66796875 C111.36719561 126.39557086 110.17028288 136.4733282 106.4375 146.5625 C106.17549805 147.28091064 105.91349609 147.99932129 105.64355469 148.73950195 C97.89204365 169.4475676 85.66604499 186.70190552 68.125 200.1875 C67.73441406 200.49171875 67.73441406 200.49171875 65.7578125 202.03125 C53.80744403 210.88337479 40.39122716 216.35218028 26.125 220.1875 C25.04476562 220.5071875 23.96453125 220.826875 22.8515625 221.15625 C-4.1532073 228.21803 -32.03129641 221.33815276 -55.875 208.1875 C-70.74632044 199.44485913 -70.74632044 199.44485913 -72.875 195.1875 C-73.25 191.8125 -73.25 191.8125 -72.875 188.1875 C-70.75 185.6875 -70.75 185.6875 -67.875 184.1875 C-62.80127676 184.4619455 -60.04367009 186.20803124 -56.0625 189.25 C-45.17379803 197.18737905 -33.10479606 202.59133034 -19.875 205.1875 C-19.22120361 205.35378906 -18.56740723 205.52007812 -17.89379883 205.69140625 C-12.05567575 207.1411372 -6.56591873 207.50239588 -0.5625 207.4375 C0.3646582 207.42928223 1.29181641 207.42106445 2.24707031 207.41259766 C25.5594151 207.03290447 47.91789263 197.93820643 65.125 182.1875 C65.92679688 181.4553125 66.72859375 180.723125 67.5546875 179.96875 C79.76235963 168.29542042 88.42727298 152.39698382 93.125 136.1875 C93.21293823 135.89041138 93.21293823 135.89041138 93.65795898 134.38696289 C95.55160562 127.15170032 95.45604862 119.93799577 95.4375 112.5 C95.45361328 111.22705078 95.46972656 109.95410156 95.48632812 108.64257812 C95.49941495 82.90079733 84.80694546 60.55687742 67.125 42.1875 C47.86988633 23.28494475 23.07574971 15.88420546 -3.31103516 15.9453125 C-29.30939224 16.24783884 -52.32582892 27.1181104 -70.46826172 45.66015625 C-78.88648178 54.800105 -85.10692339 65.77170227 -89.875 77.1875 C-90.01123779 77.51145752 -90.01123779 77.51145752 -90.70068359 79.15087891 C-98.09168971 97.7510377 -97.80387712 123.52934723 -90.875 142.1875 C-90.50117188 143.2290625 -90.12734375 144.270625 -89.7421875 145.34375 C-87.15659996 151.98751137 -83.79271552 158.0696402 -80.1328125 164.1796875 C-78.64830869 167.72958793 -78.84986 169.52628573 -79.875 173.1875 C-81 175.0625 -81 175.0625 -82.875 176.1875 C-86.25 176.6875 -86.25 176.6875 -89.875 176.1875 C-94.19809901 172.58719041 -96.50386106 168.66259363 -98.875 163.6875 C-99.04660645 163.33179932 -99.04660645 163.33179932 -99.91503906 161.53173828 C-100.91846025 159.424365 -101.8997771 157.30804281 -102.875 155.1875 C-103.36484375 154.14335937 -103.8546875 153.09921875 -104.359375 152.0234375 C-115.03923229 127.03784544 -114.61313179 97.33738748 -104.875 72.1875 C-93.19754207 43.31567488 -71.5202684 20.14905582 -42.78515625 7.72265625 C-28.60539042 1.95430866 -15.25614601 0.00803801 0 0 Z " fill="#030304" transform="translate(251.875,150.8125)"/>
<path d="M0 0 C4.41095426 2.04210846 6.58490582 4.17625752 8.40234375 8.69116211 C9.73579108 13.84247394 9.38864941 19.21709192 9.3125 24.5 C9.30049561 25.78938477 9.28849121 27.07876953 9.27612305 28.40722656 C8.51642214 80.7393041 -5.67407771 130.55295015 -40.62890625 170.234375 C-44.00381443 174.17084121 -44.10204673 175.89766365 -44 181 C-44 185 -44 185 -45.75 186.921875 C-46.4925 187.52515625 -47.235 188.1284375 -48 188.75 C-48.37125 189.05679688 -48.37125 189.05679688 -50.25 190.609375 C-50.8275 191.06828125 -51.405 191.5271875 -52 192 C-52.70125 191.649375 -53.4025 191.29875 -54.125 190.9375 C-57.65616836 189.78603206 -59.40869566 190.0868077 -63 191 C-65.9375 192.78515625 -65.9375 192.78515625 -69 195.0625 C-91.306249 211.11188448 -117.16550504 222.35412853 -144 228 C-141.0740179 224.86650144 -138.05101478 222.60763522 -134.4375 220.3125 C-128.26171504 216.25519643 -122.58821235 211.82902944 -117 207 C-116.50467773 206.57315918 -116.00935547 206.14631836 -115.49902344 205.70654297 C-108.19120604 199.36150152 -101.95633485 192.6581448 -96 185 C-95.33484375 184.20078125 -94.6696875 183.4015625 -93.984375 182.578125 C-90.64019602 178.54931095 -87.65562476 174.51292979 -84.94946289 170.02441406 C-81.24487213 163.90649412 -77.22192063 158.90332136 -72.0625 153.9375 C-37.24560299 120.42147451 -20.46410791 69.29221385 -18.8046875 21.8984375 C-18.7727832 21.0835083 -18.74087891 20.2685791 -18.70800781 19.42895508 C-18.65458385 17.90590083 -18.6186698 16.38207928 -18.60449219 14.8581543 C-18.44483149 9.79965059 -17.14966725 6.92388714 -14 3 C-9.78820527 -0.61010977 -5.31349377 -0.82466923 0 0 Z " fill="#E8D4FC" transform="translate(488,191)"/>
<path d="M0 0 C0.77307999 -0.00696899 1.54615997 -0.01393799 2.34266663 -0.02111816 C4.87302993 -0.03866482 7.40317185 -0.04485499 9.93359375 -0.046875 C10.36413055 -0.04737854 10.36413055 -0.04737854 12.54290771 -0.04992676 C40.7813071 -0.02756596 68.91745848 3.73365622 95.546875 13.43359375 C98.6620746 14.28241024 101.15620324 14.47139904 104.37109375 14.203125 C107.74609375 12.203125 107.74609375 12.203125 110.37109375 10.203125 C113.67109375 11.853125 116.97109375 13.503125 120.37109375 15.203125 C120.31953125 15.7290625 120.31953125 15.7290625 120.05859375 18.390625 C120.37109375 22.203125 120.37109375 22.203125 122.24609375 24.765625 C125.54762566 27.34081989 128.9482981 29.38068726 132.5625 31.48046875 C141.60827436 37.02871144 149.69364569 43.91469815 157.37109375 51.203125 C157.86722168 51.6667041 158.36334961 52.1302832 158.87451172 52.60791016 C185.73426587 77.83078179 207.59154236 116.54179157 213.37109375 153.203125 C210.65773113 150.72966334 208.84260075 147.97737006 206.87109375 144.890625 C192.64273171 123.41920184 174.66778833 104.91898817 152.49609375 91.578125 C147.27579184 88.39232142 143.34232152 84.35353397 139.11328125 79.96875 C106.90517149 47.48535725 58.0886188 30.56067735 13.23828125 27.71484375 C12.0263208 27.63766113 10.81436035 27.56047852 9.56567383 27.48095703 C7.18891537 27.34004818 4.81103972 27.21662432 2.43237305 27.11279297 C-3.75022292 26.76320498 -8.00834674 26.51513296 -12.62890625 22.203125 C-15.71789765 17.81586185 -15.37752679 12.33228752 -14.62890625 7.203125 C-11.19184734 0.61010494 -6.8403537 0.04050377 0 0 Z " fill="#E8D4FC" transform="translate(195.62890625,17.796875)"/>
<path d="M0 0 C-0.81082031 0.54527344 -1.62164062 1.09054688 -2.45703125 1.65234375 C-31.72158175 21.49596182 -53.09914565 46.98626436 -68.33984375 78.890625 C-70.65206659 83.22128238 -73.60567951 86.90407366 -76.61328125 90.76953125 C-88.85766834 106.9385959 -97.32458642 126.64385264 -103 146 C-103.1028833 146.3412793 -103.1028833 146.3412793 -103.62353516 148.06835938 C-109.27992226 167.03414411 -112.51749842 186.71986837 -112.49707031 206.52832031 C-112.57390058 212.5320571 -113.37683846 216.13297139 -117 221 C-121.29870076 224.19106007 -126.89880513 223.47752641 -132 223 C-135.61957133 221.64266075 -136.62383399 220.6291082 -138.59790039 217.32763672 C-140.17256118 213.59045641 -140.40157391 210.92683841 -140.43359375 206.8828125 C-140.44046707 206.20112 -140.44734039 205.51942749 -140.454422 204.81707764 C-140.46817998 202.58592562 -140.45544347 200.35610995 -140.4375 198.125 C-140.43512329 197.35722229 -140.43274658 196.58944458 -140.43029785 195.79840088 C-140.32470213 173.84300721 -138.37993895 151.08600161 -132 130 C-131.73203613 129.10442383 -131.46407227 128.20884766 -131.18798828 127.28613281 C-123.06078019 100.58810039 -111.29668531 75.49982201 -92 55 C-91.37996094 54.33758301 -90.75992188 53.67516602 -90.12109375 52.99267578 C-67.57025403 29.132888 -40.12105459 12.29961607 -9.1875 1.25 C-8.48238281 0.99766602 -7.77726563 0.74533203 -7.05078125 0.48535156 C-2.2638439 -1.13192195 -2.2638439 -1.13192195 0 0 Z " fill="#E8D4FC" transform="translate(155,110)"/>
<path d="M0 0 C3.18775003 2.98851565 5.93083735 6.11995884 8.625 9.5625 C16.58414559 19.59729519 24.88909894 28.11944476 35 36 C35.7528125 36.64195312 36.505625 37.28390625 37.28125 37.9453125 C52.18095482 50.54882994 70.15659166 59.32667516 88.1875 66.5 C92.8628228 68.38562743 97.09648539 70.71586712 101.4375 73.25 C127.85268535 88.56296459 158.46312495 97.72037751 188.92578125 99.5234375 C189.61984573 99.56473785 190.31391022 99.60603821 191.02900696 99.64859009 C194.51932853 99.85056632 198.00921426 100.02928752 201.50219727 100.17822266 C202.78795654 100.24315918 204.07371582 100.3080957 205.3984375 100.375 C206.55005371 100.42398438 207.70166992 100.47296875 208.88818359 100.5234375 C213.26687022 101.19401621 215.95261559 102.77203208 218.8125 106.125 C220.94672279 111.29206569 220.59775892 116.01992358 219 121.3125 C216.27474949 124.97455537 213.26315913 126.62093323 209 128 C204.34531599 128.59056444 199.74913174 128.56767062 195.0625 128.5 C194.39370819 128.49446106 193.72491638 128.48892212 193.03585815 128.48321533 C168.65264361 128.24969749 144.36473748 125.07107524 121 118 C120.13133301 117.73848145 119.26266602 117.47696289 118.36767578 117.20751953 C74.15658975 103.55716909 36.42914038 73.24658267 14.34741211 32.50830078 C10.63159475 25.46017397 7.24912283 18.27389832 4 11 C3.56558594 10.05640625 3.13117188 9.1128125 2.68359375 8.140625 C0 2.26851045 0 2.26851045 0 0 Z " fill="#E8D4FB" transform="translate(103,366)"/>
<path d="M0 0 C11.67970036 10.05043123 20.46446735 24.91144196 22.5625 40.25 C23.95661186 59.93320305 20.519113 77.85320819 7.44140625 93.2421875 C6.82136719 93.90476562 6.20132813 94.56734375 5.5625 95.25 C4.87027344 95.99507813 4.17804688 96.74015625 3.46484375 97.5078125 C-10.36458936 111.1294578 -27.49830925 115.55203785 -46.33129883 115.56469727 C-54.0537198 115.46596898 -60.44688443 114.71949311 -67.4375 111.25 C-68.48550781 110.775625 -69.53351563 110.30125 -70.61328125 109.8125 C-87.5823341 101.51740483 -98.6853916 87.76785399 -105.4375 70.25 C-110.15140054 54.85340336 -108.81054683 36.49939171 -101.89453125 22.01953125 C-100.21007387 18.97825694 -98.40358062 16.11635983 -96.4375 13.25 C-95.84066406 12.37601563 -95.24382812 11.50203125 -94.62890625 10.6015625 C-85.17241382 -2.17748132 -70.61170898 -11.14448727 -55.05859375 -14.28125 C-34.7275129 -16.91310513 -16.50443722 -12.29490736 0 0 Z M-82.4375 19.25 C-84.73986406 22.45514718 -86.65237914 25.73257251 -88.4375 29.25 C-88.85257813 30.04664063 -89.26765625 30.84328125 -89.6953125 31.6640625 C-94.25784395 41.96964053 -94.09552211 55.21029482 -90.75 65.875 C-90.02823266 67.68698934 -89.25996177 69.48143841 -88.4375 71.25 C-88.06367188 72.05695313 -87.68984375 72.86390625 -87.3046875 73.6953125 C-80.97954857 86.05237201 -70.4280437 94.69386081 -57.3984375 99.3671875 C-45.96632024 102.37437069 -30.8314407 102.11463668 -20.4375 96.25 C-17.29606639 94.41246271 -14.34681069 92.43483529 -11.4375 90.25 C-10.385625 89.46625 -9.33375 88.6825 -8.25 87.875 C2.21305292 78.10948394 7.31488809 65.34973768 7.94775391 51.21948242 C8.28551802 36.87082087 3.12558077 25.207787 -6.7578125 14.80859375 C-12.14509908 9.68307188 -17.54348798 6.02282818 -24.4375 3.25 C-25.19289063 2.93160156 -25.94828125 2.61320312 -26.7265625 2.28515625 C-46.81355214 -5.00393531 -69.19753249 3.18744601 -82.4375 19.25 Z " fill="#030203" transform="translate(294.4375,211.75)"/>
<path d="M0 0 C0.66 0.33 1.32 0.66 2 1 C-0.83430453 4.2542015 -2.68607774 5.5206753 -7 6 C-4.74259377 3.66475218 -2.7194239 1.81294927 0 0 Z " fill="#D1BFE3" transform="translate(351,413)"/>
</svg>
